<svg width="17" height="2" viewBox="0 0 17 2" fill="none" xmlns="http://www.w3.org/2000/svg">
<path d="M16.536 1.23902H16.836V1.44542H16.536V1.23902ZM16.536 0.643818H16.836V0.850817H16.536V0.643818ZM14.6538 1.07462C14.6538 0.740418 15.168 0.762617 15.168 0.762617L15.228 0.909618C15.1764 0.897018 14.913 0.892218 14.9022 1.07342C14.9039 1.11963 14.9238 1.16329 14.9575 1.19496C14.9912 1.22663 15.036 1.24375 15.0822 1.24262H15.093C15.1381 1.24518 15.1833 1.23731 15.2249 1.21962C15.2665 1.20193 15.3035 1.1749 15.333 1.14062V0.643818H14.499V0.496817H16.344V0.643818H15.5844V0.864618C15.6594 0.808318 15.7517 0.779891 15.8454 0.784218C16.0608 0.784218 16.242 0.918017 16.242 1.07822C16.242 1.28702 15.9474 1.47722 15.9474 1.47722L15.7578 1.37642C15.7638 1.37642 15.9906 1.23782 15.9906 1.08182C15.9901 1.06117 15.9854 1.04083 15.977 1.02197C15.9686 1.0031 15.9566 0.986082 15.9416 0.971873C15.9266 0.957665 15.909 0.946549 15.8897 0.939162C15.8704 0.931774 15.8498 0.928259 15.8292 0.928818H15.8202C15.7745 0.933695 15.7303 0.947865 15.6902 0.970462C15.6502 0.993058 15.6152 1.0236 15.5874 1.06022V1.59482H15.3324V1.33742C15.0504 1.47062 14.6538 1.35002 14.6538 1.07642V1.07462ZM14.4636 0.0342178V0.144017C14.4187 0.129499 14.3714 0.123794 14.3244 0.127217C14.064 0.127217 14.0916 0.451817 14.2962 0.495017H14.1318C14.0802 0.472817 13.9416 0.352217 13.9476 0.242417C13.953 0.0486169 14.2476 -0.0611823 14.4636 0.0360177V0.0342178ZM13.8318 0.497417H14.4582V0.645017H14.3112V1.59122H14.0496V0.643217H13.8342V0.496218L13.8318 0.497417ZM13.347 0.844218C13.3818 0.847627 13.4169 0.842714 13.4495 0.829883C13.482 0.817051 13.5111 0.796669 13.5342 0.770417C13.5516 0.628817 13.1802 0.572417 13.1802 0.740417C13.1832 0.802817 13.2624 0.844218 13.347 0.844218ZM12.732 0.499218H13.8288V0.646217H13.6956C13.9284 0.880817 13.7124 1.23002 13.3278 1.25222C13.3386 1.25222 13.4214 1.31222 13.4838 1.34942C13.5942 1.40942 13.6932 1.46522 13.6986 1.46942L13.5516 1.60442C13.2972 1.50722 13.0806 1.32182 12.8832 1.17122L13.047 1.05122L13.143 1.11122C13.1775 1.12728 13.2162 1.13171 13.2534 1.12382C13.4802 1.08722 13.5174 0.986418 13.5228 0.938418C13.2594 1.07462 12.843 0.878417 12.999 0.644417H12.738L12.732 0.499218ZM11.3034 0.499218H12.7374V0.646217H12.4656V0.946217H11.8626C11.8277 0.942163 11.7926 0.952149 11.765 0.973977C11.7374 0.995806 11.7197 1.02769 11.7156 1.06262V1.06862C11.7156 1.26722 12.0864 1.33802 12.1602 1.29962C12.1594 1.27548 12.1635 1.25143 12.1721 1.22889C12.1808 1.20635 12.194 1.1858 12.2107 1.16844C12.2275 1.15109 12.2477 1.13729 12.2699 1.12787C12.2921 1.11845 12.316 1.1136 12.3402 1.11362H12.3618C12.5544 1.11362 12.588 1.34162 12.4182 1.38722C12.4386 1.42648 12.4633 1.46332 12.492 1.49702C12.5316 1.55102 12.603 1.62902 12.603 1.62902H12.336C12.336 1.62902 12.2934 1.56902 12.2706 1.53122C12.2478 1.49342 12.2424 1.47542 12.2256 1.44782C12.2142 1.45202 11.4582 1.47542 11.463 1.05122C11.463 0.915017 11.628 0.803418 11.8176 0.803418H12.204V0.643818H11.304V0.496817L11.3034 0.499218ZM10.8624 1.14782V1.27502L10.2336 1.58942L10.0866 1.44722L10.8624 1.14782ZM10.6056 1.28102C10.2684 1.27682 10.1604 1.04642 10.1604 0.981018V0.645017H9.9726V0.498018H11.274V0.645017H11.127V1.59122H10.872V1.23122C10.7913 1.2725 10.7009 1.29116 10.6104 1.28522L10.6056 1.28102ZM10.869 0.643217H10.4202V0.988217C10.4202 1.06742 10.4766 1.14302 10.6206 1.14782C10.6681 1.1481 10.7151 1.13842 10.7586 1.1194C10.8021 1.10039 10.8412 1.07246 10.8732 1.03742L10.869 0.643217ZM9.342 0.496218H9.9678V0.643217H9.8202V1.58942H9.5592V0.643217H9.345V0.496218H9.342ZM8.8116 0.780017V0.907217C8.7516 0.912017 8.463 0.886217 8.463 0.691817C8.463 0.561017 8.6328 0.471617 8.823 0.476418C9.0696 0.476418 9.2772 0.630017 9.2772 0.811217C9.2772 0.992417 9.0372 1.15622 8.8062 1.14722C8.8062 1.14722 8.88 1.26122 9.0924 1.25642C9.18592 1.25249 9.27772 1.22993 9.36241 1.19005C9.44711 1.15018 9.52298 1.0938 9.5856 1.02422V1.26422C9.186 1.52042 8.5404 1.39382 8.43 0.986417C8.50862 1.00509 8.58919 1.01436 8.67 1.01402C8.8344 1.01402 9.024 0.954018 9.024 0.793818C9.0253 0.747849 9.00848 0.703209 8.97716 0.669533C8.94585 0.635858 8.90254 0.615847 8.8566 0.613818C8.84622 0.61293 8.83578 0.61293 8.8254 0.613818C8.6634 0.619818 8.6574 0.783017 8.8188 0.783017L8.8116 0.780017ZM7.7484 1.28042C7.4118 1.27682 7.3074 1.04582 7.3074 0.980417V0.647418H7.1202V0.500417H8.4204V0.647418H8.2734V1.59362H8.0184V1.23362C7.9364 1.27557 7.84447 1.29424 7.7526 1.28762L7.7484 1.28042ZM8.0124 0.642617H7.5588V0.987617C7.5588 1.06682 7.6152 1.14242 7.7604 1.14722C7.80778 1.14741 7.85468 1.13769 7.89808 1.11868C7.94148 1.09967 7.98042 1.07178 8.0124 1.03682V0.642617ZM5.5254 1.24262H5.8254V1.44902H5.5254V1.24262ZM5.5254 0.647418H5.8254V0.854417H5.5254V0.647418ZM3.6408 1.08002C3.6408 0.745217 4.1556 0.767418 4.1556 0.767418L4.2156 0.914417C4.164 0.901817 3.9006 0.897617 3.8892 1.07822C3.89065 1.10135 3.89665 1.12396 3.90684 1.14477C3.91703 1.16558 3.93123 1.18418 3.94861 1.1995C3.966 1.21483 3.98623 1.22657 4.00816 1.23407C4.03008 1.24157 4.05327 1.24468 4.0764 1.24322H4.0848C4.12994 1.24622 4.17516 1.23862 4.21684 1.22101C4.25851 1.2034 4.29549 1.17628 4.3248 1.14182V0.647418H3.4884V0.500417H5.3322V0.647418H4.5732V0.868217C4.64801 0.811961 4.74009 0.783531 4.8336 0.787818C5.049 0.787818 5.2308 0.921617 5.2308 1.08182C5.2308 1.29062 4.9308 1.48082 4.9308 1.48082L4.7418 1.37402C4.7472 1.37402 4.974 1.23542 4.974 1.08002C4.9729 1.03827 4.95529 0.998656 4.92504 0.969865C4.89479 0.941073 4.85435 0.92545 4.8126 0.926418H4.8042C4.75859 0.931373 4.71448 0.945581 4.67455 0.968175C4.63462 0.990768 4.59973 1.02127 4.572 1.05782V1.59242H4.3164V1.33502C4.044 1.47062 3.6408 1.35002 3.6408 1.07642V1.08002ZM2.0574 0.502818H3.4854V0.649817H3.3384V1.59602H3.0768V1.03502H2.6232V1.18202C2.62422 1.19048 2.62343 1.19906 2.62088 1.2072C2.61832 1.21533 2.61407 1.22282 2.60839 1.22918C2.60271 1.23554 2.59575 1.24061 2.58795 1.24407C2.58016 1.24752 2.57172 1.24928 2.5632 1.24922C2.55802 1.24982 2.55278 1.24982 2.5476 1.24922C2.4594 1.24502 2.2044 1.00922 2.2044 0.958217C2.2044 0.885017 2.298 0.885017 2.3094 0.885017H3.072V0.645017H2.058L2.0574 0.502818ZM1.425 0.502818H2.0514V0.649817H1.9044V1.59602H1.644V0.643217H1.428L1.425 0.502818ZM1.02 0.649817H0.5916V0.973217H1.0224L1.02 0.649817ZM0 0.502818H1.428V0.649817H1.284V1.59602H1.02V1.11602H0.5916V1.24322C0.591679 1.25283 0.589864 1.26237 0.586258 1.27128C0.582653 1.28019 0.577327 1.2883 0.570585 1.29515C0.563844 1.30201 0.555818 1.30746 0.546967 1.31122C0.538116 1.31497 0.528613 1.31694 0.519 1.31702H0.5094C0.4362 1.31702 0.1416 1.07702 0.1416 1.03022C0.1416 0.983418 0.2352 0.976217 0.2412 0.976217H0.3402V0.648017H0V0.502818Z" fill="#E6363B"/>
</svg>
