<svg width="32" height="32" viewBox="0 0 32 32" fill="none" xmlns="http://www.w3.org/2000/svg">
<path d="M29 15H26.9538C26.8413 13.75 26.514 12.5287 25.9862 11.39L27.7588 10.3663C27.9885 10.2336 28.1561 10.0152 28.2248 9.75898C28.2935 9.50276 28.2576 9.22974 28.125 9C27.9924 8.77026 27.7739 8.6026 27.5177 8.53392C27.2615 8.46523 26.9885 8.50114 26.7588 8.63375L24.9837 9.65875C24.2586 8.63487 23.3651 7.74137 22.3412 7.01625L23.3662 5.24125C23.4989 5.01151 23.5348 4.73849 23.4661 4.48227C23.3974 4.22605 23.2297 4.00761 23 3.875C22.7703 3.74239 22.4972 3.70648 22.241 3.77517C21.9848 3.84385 21.7664 4.01151 21.6338 4.24125L20.61 6.01375C19.4713 5.48598 18.25 5.15868 17 5.04625V3C17 2.73478 16.8946 2.48043 16.7071 2.29289C16.5196 2.10536 16.2652 2 16 2C15.7348 2 15.4804 2.10536 15.2929 2.29289C15.1054 2.48043 15 2.73478 15 3V5.04625C13.75 5.15868 12.5287 5.48598 11.39 6.01375L10.3663 4.24125C10.3006 4.12749 10.2132 4.02778 10.109 3.94781C10.0048 3.86784 9.88585 3.80917 9.75898 3.77517C9.63211 3.74116 9.49978 3.73247 9.36956 3.7496C9.23933 3.76673 9.11376 3.80934 9 3.875C8.77026 4.00761 8.6026 4.22605 8.53392 4.48227C8.46523 4.73849 8.50114 5.01151 8.63375 5.24125L9.65875 7.01625C8.63487 7.74137 7.74137 8.63487 7.01625 9.65875L5.24125 8.63375C5.01151 8.50114 4.73849 8.46523 4.48227 8.53392C4.22605 8.6026 4.00761 8.77026 3.875 9C3.74239 9.22974 3.70648 9.50276 3.77517 9.75898C3.84385 10.0152 4.01151 10.2336 4.24125 10.3663L6.01375 11.39C5.48598 12.5287 5.15868 13.75 5.04625 15H3C2.73478 15 2.48043 15.1054 2.29289 15.2929C2.10536 15.4804 2 15.7348 2 16C2 16.2652 2.10536 16.5196 2.29289 16.7071C2.48043 16.8946 2.73478 17 3 17H5.04625C5.15868 18.25 5.48598 19.4713 6.01375 20.61L4.24125 21.6338C4.0505 21.7438 3.90139 21.9137 3.81707 22.1171C3.73275 22.3205 3.71794 22.5461 3.77493 22.7588C3.83191 22.9715 3.95752 23.1594 4.13224 23.2935C4.30697 23.4275 4.52104 23.5001 4.74125 23.5C4.91683 23.5005 5.08939 23.4544 5.24125 23.3662L7.01625 22.3412C7.74137 23.3651 8.63487 24.2586 9.65875 24.9837L8.63375 26.7588C8.50114 26.9885 8.46523 27.2615 8.53392 27.5177C8.6026 27.7739 8.77026 27.9924 9 28.125C9.22974 28.2576 9.50276 28.2935 9.75898 28.2248C10.0152 28.1561 10.2336 27.9885 10.3663 27.7588L11.39 25.9862C12.5287 26.514 13.75 26.8413 15 26.9538V29C15 29.2652 15.1054 29.5196 15.2929 29.7071C15.4804 29.8946 15.7348 30 16 30C16.2652 30 16.5196 29.8946 16.7071 29.7071C16.8946 29.5196 17 29.2652 17 29V26.9538C18.25 26.8413 19.4713 26.514 20.61 25.9862L21.6338 27.7588C21.7664 27.9885 21.9848 28.1561 22.241 28.2248C22.4972 28.2935 22.7703 28.2576 23 28.125C23.2297 27.9924 23.3974 27.774 23.4661 27.5177C23.5348 27.2615 23.4989 26.9885 23.3662 26.7588L22.3412 24.9837C23.3651 24.2586 24.2586 23.3651 24.9837 22.3412L26.7588 23.3662C26.8725 23.4319 26.9981 23.4746 27.1283 23.4917C27.2585 23.5089 27.3909 23.5002 27.5177 23.4662C27.6446 23.4322 27.7636 23.3735 27.8677 23.2935C27.9719 23.2135 28.0594 23.1138 28.125 23C28.2578 22.7704 28.2939 22.4975 28.2254 22.2413C28.157 21.9851 27.9896 21.7665 27.76 21.6338L25.9875 20.61C26.5148 19.4712 26.8417 18.25 26.9538 17H29C29.2652 17 29.5196 16.8946 29.7071 16.7071C29.8946 16.5196 30 16.2652 30 16C30 15.7348 29.8946 15.4804 29.7071 15.2929C29.5196 15.1054 29.2652 15 29 15ZM16 7C18.2129 7.00263 20.3474 7.81952 21.9966 9.29493C23.6458 10.7703 24.6944 12.8011 24.9425 15H16.5775L12.395 7.75625C13.5312 7.25687 14.7589 6.99933 16 7ZM7 16C7.00076 14.5902 7.33271 13.2003 7.96909 11.9423C8.60547 10.6843 9.52849 9.59339 10.6637 8.7575L14.845 16L10.6637 23.2425C9.52849 22.4066 8.60547 21.3157 7.96909 20.0577C7.33271 18.7997 7.00076 17.4098 7 16ZM16 25C14.7593 25.0026 13.5317 24.7472 12.395 24.25L16.5775 17H24.9425C24.6944 19.1989 23.6458 21.2297 21.9966 22.7051C20.3474 24.1805 18.2129 24.9974 16 25Z" fill="#2B3990"/>
</svg>
