<svg width="20" height="20" viewBox="0 0 20 20" fill="none" xmlns="http://www.w3.org/2000/svg">
<path d="M11.5945 2.88281C11.6588 2.64269 11.8158 2.43793 12.031 2.31355C12.2462 2.18917 12.5021 2.15535 12.7422 2.21953C13.9542 2.53528 15.0601 3.16863 15.9457 4.05427C16.8314 4.93992 17.4647 6.04578 17.7805 7.25781C17.8152 7.37763 17.8257 7.50317 17.8113 7.62709C17.7968 7.751 17.7578 7.87079 17.6965 7.97944C17.6352 8.08809 17.5529 8.18342 17.4543 8.25983C17.3556 8.33624 17.2428 8.3922 17.1223 8.42444C17.0018 8.45667 16.876 8.46453 16.7524 8.44755C16.6288 8.43057 16.5099 8.3891 16.4025 8.32556C16.2952 8.26202 16.2016 8.17769 16.1272 8.07752C16.0529 7.97734 15.9993 7.86334 15.9695 7.74218C15.7367 6.84938 15.27 6.0348 14.6176 5.38238C13.9652 4.72996 13.1506 4.26329 12.2578 4.03046C12.0177 3.96619 11.8129 3.80918 11.6886 3.59396C11.5642 3.37875 11.5304 3.12295 11.5945 2.88281ZM18.4258 13.7172C18.2768 14.8513 17.7201 15.8923 16.8597 16.646C15.9992 17.3996 14.8938 17.8143 13.75 17.8125C7.37422 17.8125 2.18751 12.6258 2.18751 6.25C2.18573 5.10617 2.60039 4.0008 3.35402 3.14035C4.10765 2.2799 5.14873 1.72319 6.28282 1.57421C6.61697 1.53361 6.95532 1.60173 7.24772 1.76848C7.54013 1.93523 7.77105 2.19173 7.90626 2.5L9.55547 6.18203C9.55723 6.18685 9.55932 6.19155 9.56172 6.19609C9.66308 6.43298 9.70428 6.69126 9.68165 6.94792C9.65902 7.20459 9.57327 7.45168 9.43204 7.66718C9.41194 7.69858 9.38975 7.7286 9.36563 7.75703L7.87657 9.53125C8.42813 10.5344 9.47813 11.575 10.493 12.1258L12.2359 10.6414C12.2639 10.618 12.2931 10.5961 12.3234 10.5758C12.5397 10.4307 12.7889 10.3422 13.0483 10.3184C13.3076 10.2947 13.5688 10.3364 13.8078 10.4398L13.8219 10.4461L17.5 12.0937C17.8082 12.2291 18.0646 12.46 18.2314 12.7524C18.3981 13.0448 18.4663 13.383 18.4258 13.7172ZM16.5266 13.7125L13.2453 12.243L11.493 13.7328C11.4654 13.7567 11.4365 13.7788 11.4063 13.7992C11.181 13.9486 10.9209 14.0369 10.6512 14.0557C10.3816 14.0745 10.1117 14.023 9.86797 13.9062C8.3461 13.1719 6.82969 11.6656 6.09376 10.1562C5.97672 9.91357 5.92443 9.64476 5.94195 9.37591C5.95947 9.10706 6.04622 8.8473 6.19376 8.62187C6.21412 8.59046 6.23657 8.56044 6.26094 8.53203L7.75782 6.75703L6.28751 3.47578C5.65579 3.61499 5.09068 3.96604 4.68596 4.47066C4.28124 4.97528 4.06125 5.60313 4.06251 6.25C4.06561 8.81833 5.08725 11.2806 6.90333 13.0967C8.71942 14.9128 11.1817 15.9344 13.75 15.9375C14.3973 15.9393 15.0257 15.7195 15.5308 15.3148C16.0359 14.91 16.3873 14.3446 16.5266 13.7125ZM11.3773 6.98984C11.7607 7.11068 12.1093 7.32219 12.3936 7.60643C12.6778 7.89067 12.8893 8.23927 13.0102 8.62265C13.07 8.81287 13.1889 8.97906 13.3496 9.09707C13.5103 9.21509 13.7045 9.27878 13.9039 9.2789C13.9995 9.27879 14.0946 9.2643 14.1859 9.23593C14.4222 9.16119 14.6192 8.99596 14.734 8.77637C14.8488 8.55678 14.8719 8.30068 14.7984 8.06406C14.587 7.39279 14.2168 6.78243 13.7191 6.28478C13.2215 5.78714 12.6111 5.41689 11.9398 5.20546C11.8217 5.16582 11.6969 5.15013 11.5726 5.15931C11.4483 5.16848 11.3271 5.20234 11.2161 5.2589C11.105 5.31547 11.0064 5.3936 10.9259 5.48873C10.8454 5.58386 10.7847 5.69409 10.7473 5.81296C10.7099 5.93183 10.6966 6.05696 10.7081 6.18104C10.7197 6.30512 10.7558 6.42565 10.8145 6.5356C10.8731 6.64554 10.9531 6.74268 11.0498 6.82135C11.1464 6.90001 11.2578 6.95862 11.3773 6.99375V6.98984Z" fill="white"/>
</svg>
