<svg width="26" height="15" viewBox="0 0 26 15" fill="none" xmlns="http://www.w3.org/2000/svg">
<path fill-rule="evenodd" clip-rule="evenodd" d="M12.5303 4.0002C12.7145 4.0002 12.9437 4.092 13.2197 4.3674L18.5969 9.744C19.4693 10.6176 18.9641 11.304 17.8169 11.2146H12.5303L15.7013 14.4774H22.4567C24.5249 14.5692 26.1767 12.639 24.1115 10.6632L14.6915 1.2876C13.9061 0.5058 13.2197 0 12.5303 0C11.8409 0 11.1503 0.5058 10.3703 1.2876L0.950265 10.6626C-1.11733 12.6384 0.536265 14.5686 2.60446 14.4762H9.35926L12.5303 11.214H7.24546C6.09646 11.3058 5.59066 10.614 6.46546 9.7434L11.8421 4.3674C12.1175 4.092 12.3479 4.0002 12.5315 4.0002" fill="#2A58A3"/>
</svg>
