<svg width="12" height="12" viewBox="0 0 12 12" fill="none" xmlns="http://www.w3.org/2000/svg">
<path d="M8.64795 6.39795L4.89795 10.1479C4.79228 10.2536 4.64895 10.313 4.49951 10.313C4.35007 10.313 4.20675 10.2536 4.10107 10.1479C3.9954 10.0423 3.93604 9.89895 3.93604 9.74951C3.93604 9.60007 3.9954 9.45675 4.10107 9.35107L7.4531 5.99998L4.10201 2.64795C4.04969 2.59562 4.00818 2.53351 3.97986 2.46514C3.95155 2.39678 3.93697 2.32351 3.93697 2.24951C3.93697 2.17551 3.95155 2.10224 3.97986 2.03388C4.00818 1.96551 4.04969 1.9034 4.10201 1.85107C4.15433 1.79875 4.21645 1.75724 4.28482 1.72893C4.35318 1.70061 4.42645 1.68604 4.50045 1.68604C4.57445 1.68604 4.64772 1.70061 4.71608 1.72893C4.78445 1.75724 4.84656 1.79875 4.89889 1.85107L8.64889 5.60107C8.70126 5.65339 8.7428 5.71554 8.77111 5.78394C8.79942 5.85235 8.81395 5.92567 8.81386 5.99971C8.81377 6.07374 8.79907 6.14703 8.7706 6.21537C8.74213 6.2837 8.70045 6.34575 8.64795 6.39795Z" fill="#4D545C"/>
</svg>
