<svg width="16" height="16" viewBox="0 0 16 16" fill="none" xmlns="http://www.w3.org/2000/svg">
<path d="M14.4925 10.9426C14.3811 11.7895 13.9652 12.5669 13.3224 13.1295C12.6797 13.6922 11.8542 14.0016 11 14.0001C6.03751 14.0001 2.00001 9.96262 2.00001 5.00012C1.99847 4.14592 2.30794 3.32038 2.87059 2.67768C3.43324 2.03497 4.21061 1.61906 5.05751 1.50762C5.27166 1.48147 5.48854 1.52528 5.67575 1.63252C5.86296 1.73975 6.01047 1.90466 6.09626 2.10262L7.41626 5.04949V5.05699C7.48194 5.20853 7.50906 5.37397 7.49521 5.53854C7.48136 5.70311 7.42696 5.86169 7.33688 6.00012C7.32563 6.01699 7.31376 6.03262 7.30126 6.04824L6.00001 7.59074C6.46813 8.54199 7.46313 9.52824 8.42688 9.99762L9.94813 8.70324C9.96307 8.69068 9.97872 8.679 9.99501 8.66824C10.1333 8.57599 10.2924 8.51968 10.458 8.50441C10.6235 8.48913 10.7903 8.51536 10.9431 8.58074L10.9513 8.58449L13.8956 9.90387C14.0939 9.98935 14.2592 10.1367 14.3668 10.324C14.4744 10.5112 14.5185 10.7282 14.4925 10.9426Z" fill="#2B3990"/>
</svg>
