<svg width="4" height="4" viewBox="0 0 4 4" fill="none" xmlns="http://www.w3.org/2000/svg">
<path fill-rule="evenodd" clip-rule="evenodd" d="M1.9524 3.68493e-07C2.33878 -0.000236896 2.71656 0.114108 3.03796 0.328575C3.35936 0.543042 3.60995 0.847998 3.75803 1.20488C3.90611 1.56176 3.94504 1.95454 3.8699 2.33355C3.79475 2.71256 3.6089 3.06077 3.33585 3.33415C3.0628 3.60754 2.71482 3.79382 2.3359 3.86943C1.95699 3.94504 1.56416 3.90659 1.2071 3.75895C0.850034 3.61131 0.544769 3.3611 0.329908 3.03996C0.115046 2.71882 0.00023741 2.34119 0 1.9548C0.000158936 1.43699 0.20589 0.940415 0.571984 0.574208C0.938078 0.208001 1.43458 0.00211834 1.9524 0.0018003" fill="#E6363B"/>
</svg>
