<svg width="32" height="32" viewBox="0 0 32 32" fill="none" xmlns="http://www.w3.org/2000/svg">
<path d="M23.7075 8.29247C23.8005 8.38534 23.8742 8.49563 23.9245 8.61703C23.9749 8.73843 24.0008 8.86855 24.0008 8.99997C24.0008 9.13139 23.9749 9.26151 23.9245 9.38291C23.8742 9.50431 23.8005 9.6146 23.7075 9.70747L21.7075 11.7075C21.5198 11.8951 21.2653 12.0005 21 12.0005C20.7346 12.0005 20.4801 11.8951 20.2925 11.7075C20.1048 11.5198 19.9994 11.2653 19.9994 11C19.9994 10.7346 20.1048 10.4801 20.2925 10.2925L22.2925 8.29247C22.3853 8.19949 22.4956 8.12573 22.617 8.07541C22.7384 8.02509 22.8686 7.99918 23 7.99918C23.1314 7.99918 23.2615 8.02509 23.3829 8.07541C23.5043 8.12573 23.6146 8.19949 23.7075 8.29247ZM28 8.99997C28.0018 9.65682 27.8733 10.3075 27.6218 10.9143C27.3703 11.5211 27.0009 12.072 26.535 12.535L23.535 15.535C23.3889 15.6812 23.2011 15.7786 22.9975 15.8137C16.5612 16.9187 5.81498 27.5987 5.70748 27.7075C5.51984 27.8949 5.26541 28.0002 5.00016 28.0001C4.73491 28 4.48058 27.8945 4.2931 27.7068C4.10563 27.5192 4.00037 27.2648 4.00049 26.9995C4.00061 26.7343 4.10609 26.4799 4.29373 26.2925C4.49998 26.0912 15.0862 15.41 16.1862 8.99997C16.2214 8.7963 16.3187 8.60853 16.465 8.46247L19.465 5.46247C20.1644 4.76327 21.0554 4.28719 22.0254 4.09443C22.9954 3.90167 24.0008 4.0009 24.9144 4.37956C25.828 4.75822 26.6088 5.3993 27.158 6.22174C27.7073 7.04417 28.0003 8.01101 28 8.99997ZM26 8.99997C26.0014 8.40556 25.8263 7.8241 25.4967 7.3294C25.1672 6.8347 24.6981 6.44904 24.149 6.22137C23.5999 5.9937 22.9956 5.93428 22.4127 6.05064C21.8298 6.16701 21.2946 6.45392 20.875 6.87497L18.0962 9.66122C17.545 12.305 15.7337 15.435 13.66 18.34C16.565 16.2662 19.695 14.455 22.3387 13.9037L25.125 11.125C25.4042 10.8463 25.6253 10.5149 25.7755 10.1502C25.9257 9.7854 26.002 9.39445 26 8.99997Z" fill="#2B3990"/>
</svg>
