<svg width="13" height="14" viewBox="0 0 13 14" fill="none" xmlns="http://www.w3.org/2000/svg">
<path d="M13 6.49979V11.4998C13 12.1628 12.7366 12.7987 12.2678 13.2676C11.7989 13.7364 11.163 13.9998 10.5 13.9998H7C6.86739 13.9998 6.74021 13.9471 6.64645 13.8533C6.55268 13.7596 6.5 13.6324 6.5 13.4998C6.5 13.3672 6.55268 13.24 6.64645 13.1462C6.74021 13.0525 6.86739 12.9998 7 12.9998H10.5C10.8978 12.9998 11.2794 12.8418 11.5607 12.5605C11.842 12.2791 12 11.8976 12 11.4998H10.5C10.1022 11.4998 9.72064 11.3418 9.43934 11.0605C9.15804 10.7791 9 10.3976 9 9.99979V7.49979C9 7.10197 9.15804 6.72044 9.43934 6.43913C9.72064 6.15783 10.1022 5.99979 10.5 5.99979H11.9781C11.8835 4.96038 11.4951 3.96935 10.8582 3.14245C10.2214 2.31555 9.36242 1.68692 8.38163 1.33C7.40085 0.973077 6.33875 0.902591 5.3194 1.12677C4.30005 1.35096 3.36553 1.86056 2.625 2.59604C1.70416 3.50474 1.1362 4.7111 1.0225 5.99979H2.5C2.89782 5.99979 3.27936 6.15783 3.56066 6.43913C3.84196 6.72044 4 7.10197 4 7.49979V9.99979C4 10.3976 3.84196 10.7791 3.56066 11.0605C3.27936 11.3418 2.89782 11.4998 2.5 11.4998H1.5C1.10218 11.4998 0.720644 11.3418 0.43934 11.0605C0.158035 10.7791 0 10.3976 0 9.99979V6.49979C0.00140184 5.21223 0.384765 3.95403 1.10156 2.88444C1.81836 1.81485 2.83638 0.981961 4.02674 0.491199C5.21711 0.000437617 6.52632 -0.126136 7.78866 0.127501C9.05099 0.381137 10.2097 1.00358 11.1181 1.91604C11.7179 2.51873 12.1929 3.23385 12.5158 4.02041C12.8387 4.80698 13.0033 5.64953 13 6.49979Z" fill="#2B3990"/>
</svg>
