<svg width="28" height="28" viewBox="0 0 28 28" fill="none" xmlns="http://www.w3.org/2000/svg">
<path d="M27 13H24.9538C24.8413 11.75 24.514 10.5287 23.9862 9.39L25.7588 8.36625C25.9885 8.23364 26.1561 8.0152 26.2248 7.75898C26.2935 7.50276 26.2576 7.22974 26.125 7C25.9924 6.77026 25.7739 6.6026 25.5177 6.53392C25.2615 6.46523 24.9885 6.50114 24.7588 6.63375L22.9837 7.65875C22.2586 6.63487 21.3651 5.74137 20.3412 5.01625L21.3662 3.24125C21.4989 3.01151 21.5348 2.73849 21.4661 2.48227C21.3974 2.22605 21.2297 2.00761 21 1.875C20.7703 1.74239 20.4972 1.70648 20.241 1.77517C19.9848 1.84385 19.7664 2.01151 19.6338 2.24125L18.61 4.01375C17.4713 3.48598 16.25 3.15868 15 3.04625V1C15 0.734784 14.8946 0.48043 14.7071 0.292893C14.5196 0.105357 14.2652 0 14 0C13.7348 0 13.4804 0.105357 13.2929 0.292893C13.1054 0.48043 13 0.734784 13 1V3.04625C11.75 3.15868 10.5287 3.48598 9.39 4.01375L8.36625 2.24125C8.30059 2.12749 8.21316 2.02778 8.10897 1.94781C8.00477 1.86784 7.88585 1.80917 7.75898 1.77517C7.63211 1.74116 7.49978 1.73247 7.36956 1.7496C7.23933 1.76673 7.11376 1.80934 7 1.875C6.77026 2.00761 6.6026 2.22605 6.53392 2.48227C6.46523 2.73849 6.50114 3.01151 6.63375 3.24125L7.65875 5.01625C6.63487 5.74137 5.74137 6.63487 5.01625 7.65875L3.24125 6.63375C3.01151 6.50114 2.73849 6.46523 2.48227 6.53392C2.22605 6.6026 2.00761 6.77026 1.875 7C1.74239 7.22974 1.70648 7.50276 1.77517 7.75898C1.84385 8.0152 2.01151 8.23364 2.24125 8.36625L4.01375 9.39C3.48598 10.5287 3.15868 11.75 3.04625 13H1C0.734784 13 0.48043 13.1054 0.292893 13.2929C0.105357 13.4804 0 13.7348 0 14C0 14.2652 0.105357 14.5196 0.292893 14.7071C0.48043 14.8946 0.734784 15 1 15H3.04625C3.15868 16.25 3.48598 17.4713 4.01375 18.61L2.24125 19.6338C2.0505 19.7438 1.90139 19.9137 1.81707 20.1171C1.73275 20.3205 1.71794 20.5461 1.77493 20.7588C1.83191 20.9715 1.95752 21.1594 2.13224 21.2935C2.30697 21.4275 2.52104 21.5001 2.74125 21.5C2.91683 21.5005 3.08939 21.4544 3.24125 21.3662L5.01625 20.3412C5.74137 21.3651 6.63487 22.2586 7.65875 22.9837L6.63375 24.7588C6.50114 24.9885 6.46523 25.2615 6.53392 25.5177C6.6026 25.7739 6.77026 25.9924 7 26.125C7.22974 26.2576 7.50276 26.2935 7.75898 26.2248C8.0152 26.1561 8.23364 25.9885 8.36625 25.7588L9.39 23.9862C10.5287 24.514 11.75 24.8413 13 24.9538V27C13 27.2652 13.1054 27.5196 13.2929 27.7071C13.4804 27.8946 13.7348 28 14 28C14.2652 28 14.5196 27.8946 14.7071 27.7071C14.8946 27.5196 15 27.2652 15 27V24.9538C16.25 24.8413 17.4713 24.514 18.61 23.9862L19.6338 25.7588C19.7664 25.9885 19.9848 26.1561 20.241 26.2248C20.4972 26.2935 20.7703 26.2576 21 26.125C21.2297 25.9924 21.3974 25.774 21.4661 25.5177C21.5348 25.2615 21.4989 24.9885 21.3662 24.7588L20.3412 22.9837C21.3651 22.2586 22.2586 21.3651 22.9837 20.3412L24.7588 21.3662C24.8725 21.4319 24.9981 21.4746 25.1283 21.4917C25.2585 21.5089 25.3909 21.5002 25.5177 21.4662C25.6446 21.4322 25.7636 21.3735 25.8677 21.2935C25.9719 21.2135 26.0594 21.1138 26.125 21C26.2578 20.7704 26.2939 20.4975 26.2254 20.2413C26.157 19.9851 25.9896 19.7665 25.76 19.6338L23.9875 18.61C24.5148 17.4712 24.8417 16.25 24.9538 15H27C27.2652 15 27.5196 14.8946 27.7071 14.7071C27.8946 14.5196 28 14.2652 28 14C28 13.7348 27.8946 13.4804 27.7071 13.2929C27.5196 13.1054 27.2652 13 27 13ZM14 5C16.2129 5.00263 18.3474 5.81952 19.9966 7.29493C21.6458 8.77034 22.6944 10.8011 22.9425 13H14.5775L10.395 5.75625C11.5312 5.25687 12.7589 4.99933 14 5ZM5 14C5.00076 12.5902 5.33271 11.2003 5.96909 9.9423C6.60547 8.6843 7.52849 7.59339 8.66375 6.7575L12.845 14L8.66375 21.2425C7.52849 20.4066 6.60547 19.3157 5.96909 18.0577C5.33271 16.7997 5.00076 15.4098 5 14ZM14 23C12.7593 23.0026 11.5317 22.7472 10.395 22.25L14.5775 15H22.9425C22.6944 17.1989 21.6458 19.2297 19.9966 20.7051C18.3474 22.1805 16.2129 22.9974 14 23Z" fill="#2B3990"/>
</svg>
