<svg width="24" height="24" viewBox="0 0 24 24" fill="none" xmlns="http://www.w3.org/2000/svg">
<path d="M19.707 4.29393C19.8 4.38681 19.8737 4.4971 19.924 4.61849C19.9744 4.73989 20.0003 4.87002 20.0003 5.00143C20.0003 5.13285 19.9744 5.26298 19.924 5.38438C19.8737 5.50577 19.8 5.61606 19.707 5.70894L17.707 7.70894C17.5193 7.89658 17.2649 8.00199 16.9995 8.00199C16.7341 8.00199 16.4796 7.89658 16.292 7.70894C16.1043 7.52129 15.9989 7.2668 15.9989 7.00143C15.9989 6.73607 16.1043 6.48158 16.292 6.29393L18.292 4.29393C18.3849 4.20096 18.4952 4.1272 18.6165 4.07688C18.7379 4.02655 18.8681 4.00065 18.9995 4.00065C19.1309 4.00065 19.261 4.02655 19.3824 4.07688C19.5038 4.1272 19.6141 4.20096 19.707 4.29393ZM23.9995 5.00143C24.0013 5.65829 23.8728 6.30897 23.6213 6.91578C23.3698 7.52259 23.0004 8.07345 22.5345 8.53643L19.5345 11.5364C19.3884 11.6827 19.2007 11.78 18.997 11.8152C12.5607 12.9202 1.81449 23.6002 1.70699 23.7089C1.51935 23.8964 1.26492 24.0017 0.999673 24.0015C0.734426 24.0014 0.480089 23.8959 0.292615 23.7083C0.10514 23.5207 -0.000117112 23.2662 9.7786e-08 23.001C0.000117308 22.7357 0.105599 22.4814 0.293239 22.2939C0.499489 22.0927 11.0857 11.4114 12.1857 5.00143C12.2209 4.79777 12.3183 4.60999 12.4645 4.46393L15.4645 1.46393C16.1639 0.764737 17.0549 0.288654 18.0249 0.0958956C18.9949 -0.0968625 20.0003 0.00236318 20.9139 0.381023C21.8275 0.759683 22.6083 1.40077 23.1575 2.2232C23.7068 3.04563 23.9998 4.01247 23.9995 5.00143ZM21.9995 5.00143C22.001 4.40702 21.8258 3.82557 21.4963 3.33086C21.1667 2.83616 20.6976 2.4505 20.1485 2.22283C19.5995 1.99516 18.9951 1.93574 18.4122 2.05211C17.8293 2.16848 17.2941 2.45539 16.8745 2.87643L14.0957 5.66268C13.5445 8.30643 11.7332 11.4364 9.65949 14.3414C12.5645 12.2677 15.6945 10.4564 18.3382 9.90518L21.1245 7.12643C21.4037 6.84774 21.6248 6.5164 21.775 6.15163C21.9252 5.78686 22.0015 5.39591 21.9995 5.00143Z" fill="#2B3990"/>
</svg>
