<svg width="13" height="13" viewBox="0 0 13 13" fill="none" xmlns="http://www.w3.org/2000/svg">
<path d="M12.5 7.75V11.25C12.5 11.5815 12.3683 11.8995 12.1339 12.1339C11.8995 12.3683 11.5815 12.5 11.25 12.5H1.25C0.918479 12.5 0.600537 12.3683 0.366117 12.1339C0.131696 11.8995 0 11.5815 0 11.25V7.75C0 7.55109 0.0790177 7.36032 0.21967 7.21967C0.360322 7.07902 0.551088 7 0.75 7C0.948912 7 1.13968 7.07902 1.28033 7.21967C1.42098 7.36032 1.5 7.55109 1.5 7.75V11H11V7.75C11 7.55109 11.079 7.36032 11.2197 7.21967C11.3603 7.07902 11.5511 7 11.75 7C11.9489 7 12.1397 7.07902 12.2803 7.21967C12.421 7.36032 12.5 7.55109 12.5 7.75ZM5.71938 8.28063C5.78905 8.35055 5.87185 8.40602 5.96301 8.44388C6.05418 8.48173 6.15191 8.50122 6.25062 8.50122C6.34934 8.50122 6.44707 8.48173 6.53824 8.44388C6.6294 8.40602 6.7122 8.35055 6.78187 8.28063L9.28187 5.78062C9.42277 5.63973 9.50193 5.44863 9.50193 5.24937C9.50193 5.05012 9.42277 4.85902 9.28187 4.71812C9.14098 4.57723 8.94988 4.49807 8.75062 4.49807C8.55137 4.49807 8.36027 4.57723 8.21937 4.71812L7 5.9375V0.75C7 0.551088 6.92098 0.360322 6.78033 0.21967C6.63968 0.0790177 6.44891 0 6.25 0C6.05109 0 5.86032 0.0790177 5.71967 0.21967C5.57902 0.360322 5.5 0.551088 5.5 0.75V5.9375L4.28062 4.71938C4.13973 4.57848 3.94863 4.49932 3.74937 4.49932C3.55012 4.49932 3.35902 4.57848 3.21812 4.71938C3.07723 4.86027 2.99807 5.05137 2.99807 5.25063C2.99807 5.44988 3.07723 5.64098 3.21812 5.78188L5.71938 8.28063Z" fill="white"/>
</svg>
