<svg width="7" height="12" viewBox="0 0 7 12" fill="none" xmlns="http://www.w3.org/2000/svg">
<path d="M6.28255 6.28255L1.28255 11.2826C1.14165 11.4234 0.950558 11.5026 0.751301 11.5026C0.552043 11.5026 0.360947 11.4234 0.220051 11.2826C0.0791546 11.1417 1.48458e-09 10.9506 0 10.7513C-1.48458e-09 10.552 0.0791546 10.3609 0.220051 10.2201L4.68943 5.75193L0.221301 1.28255C0.151536 1.21279 0.0961957 1.12996 0.0584393 1.03881C0.0206828 0.94766 0.00124979 0.849963 0.00124979 0.751301C0.00124979 0.652639 0.0206829 0.554942 0.0584393 0.46379C0.0961957 0.372638 0.151536 0.289816 0.221301 0.220051C0.291066 0.150286 0.373889 0.0949459 0.465041 0.0571895C0.556193 0.0194331 0.653889 -7.35091e-10 0.752551 0C0.851213 7.35092e-10 0.94891 0.0194331 1.04006 0.0571895C1.13121 0.0949459 1.21404 0.150286 1.2838 0.220051L6.2838 5.22005C6.35364 5.28981 6.40902 5.37267 6.44677 5.46388C6.48451 5.55509 6.50388 5.65285 6.50377 5.75156C6.50365 5.85027 6.48405 5.94799 6.44609 6.03911C6.40813 6.13023 6.35255 6.21296 6.28255 6.28255Z" fill="#262A2E"/>
</svg>
